<svg xmlns="http://www.w3.org/2000/svg" enable-background="new 0 0 24 24" viewBox="0 0 24 24" id="blockchain"><g><path fill="#b1e1ff" d="M21,7.38v9.24c0,0.28-0.12,0.54-0.31,0.72l-0.02-0.01L12,13V2.76c0.07,0,0.14,0.0099,0.21,0.02
		c0.07,0.02,0.14,0.04,0.2,0.07l0.04,0.02l7.96,3.6C20.77,6.63,21,6.99,21,7.38z"></path><path fill="#262656" d="M20.36 17.55c.06-.03.12-.06.17-.09-.03.02-.0601.04-.09.06C20.41 17.53 20.39 17.54 20.36 17.55zM20.69 17.34c-.05.05-.1.09-.16.12.05-.04.1-.08.14-.13L20.69 17.34zM3.6 17.54c-.0699-.03-.13-.08-.19-.13.07.06.16.11.25.15C3.64 17.56 3.62 17.55 3.6 17.54z"></path><path fill="#afb4ff" d="M12,2.76V13l-8.67,4.33l-0.01,0.01C3.13,17.15,3,16.89,3,16.62V7.38c0-0.39,0.23-0.75,0.59-0.91l7.96-3.6
		c0.02-0.01,0.03-0.02,0.04-0.02c0.06-0.03,0.1299-0.05,0.2-0.07C11.86,2.77,11.93,2.76,12,2.76z"></path><path fill="#262656" d="M3.41,17.41c-0.03-0.02-0.06-0.04-0.09-0.07l0.01-0.01C3.35,17.36,3.38,17.39,3.41,17.41z"></path><path fill="#9c9efe" d="M20.67,17.33c-0.04,0.05-0.09,0.09-0.14,0.13c-0.05,0.03-0.11,0.06-0.17,0.09c-0.01,0-0.01,0.01-0.02,0.01
		l-7.95,3.36C12.26,20.97,12.13,21,12,21s-0.26-0.03-0.39-0.08l-7.92-3.35l-0.03-0.01c-0.09-0.04-0.18-0.09-0.25-0.15
		c-0.03-0.02-0.06-0.05-0.08-0.08L12,13L20.67,17.33z"></path><path d="M21,7.38v2.77c-2.67-1.95-5.83-2.92-9-2.92S5.67,8.2,3,10.15V7.38c0-0.39,0.23-0.75,0.59-0.91l7.96-3.6
		c0.02-0.01,0.03-0.02,0.04-0.02c0.06-0.03,0.1299-0.05,0.2-0.07c0.07-0.01,0.14-0.02,0.21-0.02s0.14,0.0099,0.21,0.02
		c0.07,0.02,0.14,0.04,0.2,0.07l0.04,0.02l7.96,3.6C20.77,6.63,21,6.99,21,7.38z" opacity=".1"></path></g></svg>