<svg xmlns="http://www.w3.org/2000/svg" viewBox="0 0 64 64" id="inbox"><path fill="#e6e7e8" d="M8.56,19.63,27.56,7a8,8,0,0,1,8.88,0L55.1,19.4a2.13,2.13,0,0,1,.56.56L59,25,37.26,38.74a10,10,0,0,1-10.52,0L5,25"></path><path fill="#00b1ff" d="M35,15.29h5.19a1.43,1.43,0,0,1,1.19,2.31l-4.25,5.1-2,2.48-1.88,2.26a1.54,1.54,0,0,1-2.38,0L22.63,17.6a1.43,1.43,0,0,1,1.19-2.31H29L28.94,12V6.53A1.53,1.53,0,0,1,30.47,5h3.06a1.53,1.53,0,0,1,1.53,1.53V12"></path><path fill="#00b1ff" d="M57.66,25.85,37.26,38.74a10,10,0,0,1-10.52,0L5,25V50a8,8,0,0,0,2,5.29H7A8,8,0,0,0,13,58H51a8,8,0,0,0,8-8V25Z"></path><path fill="#00d" d="M32,41.25a11,11,0,0,1-5.79-1.66L4.57,25.91a1,1,0,1,1,1.06-1.7L27.27,37.9a9,9,0,0,0,9.46,0L58.37,24.21a1,1,0,1,1,1.06,1.7L37.79,39.59A11,11,0,0,1,32,41.25Z"></path><path fill="#00d" d="M5 49a1 1 0 01-1-1V26.28a9 9 0 014-7.49l2.44-1.62a1 1 0 111.1 1.66L9.12 20.46A7 7 0 006 26.28V48A1 1 0 015 49zM51 59H13a9 9 0 01-6.75-3 1 1 0 011.5-1.32A7 7 0 0013 57H51a7 7 0 007-7V26.28a7 7 0 00-3.12-5.82l-2.43-1.63a1 1 0 011.1-1.66L56 18.79a9 9 0 014 7.49V50A9 9 0 0151 59z"></path><path fill="#00d" d="M10 53.41a1 1 0 01-.72-.31 1 1 0 010-1.41l15-14.41a1 1 0 011.38 1.44l-15 14.41A1 1 0 0110 53.41zM54 53.41a1 1 0 01-.69-.28l-15-14.41a1 1 0 111.38-1.44l15 14.41a1 1 0 010 1.41A1 1 0 0154 53.41zM35.06 13a1 1 0 01-1-1V6.53A.53.53 0 0033.53 6H30.47a.53.53 0 00-.53.53V12a1 1 0 01-2 0V6.53A2.53 2.53 0 0130.47 4h3.06a2.53 2.53 0 012.53 2.53V12A1 1 0 0135.06 13zM32 29a2.49 2.49 0 01-2-.94l-8.17-9.83a2.38 2.38 0 01-.3-2.54 2.47 2.47 0 012.26-1.4H29a1 1 0 010 2H23.82a.48.48 0 00-.46.26.37.37 0 00.05.42l8.17 9.83A.54.54 0 0032 27a.5.5 0 00.4-.19l1.9-2.27a1 1 0 111.53 1.28L34 28.08A2.5 2.5 0 0132 29zM37.12 23.7a1 1 0 01-.64-.23 1 1 0 01-.13-1.41L40.6 17a.37.37 0 000-.41.48.48 0 00-.46-.26H35a1 1 0 010-2h5.19a2.47 2.47 0 012.26 1.4 2.38 2.38 0 01-.29 2.53l-4.26 5.12A1 1 0 0137.12 23.7z"></path></svg>